<svg xmlns="http://www.w3.org/2000/svg" width="112" height="50" viewBox="0 0 112 50" fill="none"><path d="M94.1705 37.3826C93.9559 37.4116 93.7408 37.4364 93.5251 37.4629C93.4862 37.4666 93.4504 37.4397 93.4467 37.4007L93.376 36.7726C93.2663 35.756 93.1847 34.9892 92.3278 34.2673L92.2188 34.1801C91.9689 33.9902 91.6977 33.8479 91.415 33.759C91.133 33.6683 90.8413 33.6315 90.5551 33.6502C90.2647 33.6694 89.9794 33.7459 89.7105 33.8859C89.4566 34.0174 89.2176 34.2059 89.0082 34.4547C88.9802 34.4881 88.9516 34.5232 88.9247 34.559C88.3524 35.3098 88.1543 36.2958 88.137 37.3455C88.1189 38.4029 88.2827 39.5265 88.4312 40.5455L88.4328 40.552C88.4905 40.9435 88.5457 41.3202 88.5886 41.6924L88.7628 43.1744L90.6755 42.9925L91.181 42.9485L91.8297 42.8972C92.4536 42.8487 93.1389 42.7949 93.7883 42.72C94.0323 42.6919 94.2783 42.6585 94.519 42.6232C94.7561 42.5867 94.9846 42.5469 95.2032 42.5016C95.4152 42.4579 95.6157 42.408 95.7997 42.3541L95.8021 42.353C95.9844 42.2984 96.1504 42.2399 96.2923 42.1766C96.5218 42.0738 96.7244 41.9474 96.8962 41.8019C97.0782 41.6501 97.2284 41.4769 97.3477 41.2905C97.4615 41.1139 97.5485 40.9237 97.6122 40.7269C97.6766 40.5225 97.7124 40.3096 97.7229 40.0955C97.7335 39.8814 97.7176 39.6636 97.678 39.4511C97.6384 39.2385 97.5723 39.0282 97.484 38.8297C97.379 38.5954 97.2413 38.3749 97.0717 38.1765C96.9108 37.9871 96.7193 37.8164 96.5021 37.678C95.7362 37.1854 95.0316 37.2758 94.1758 37.3846L94.1705 37.3826Z" fill="#C0883E"></path><path d="M35.187 45.653C34.731 45.653 34.218 45.558 33.648 45.368C33.0906 45.178 32.5143 44.9437 31.919 44.665C31.3363 44.399 30.7536 44.1457 30.171 43.905C29.8543 44.247 29.5186 44.513 29.164 44.703C28.822 44.9057 28.4483 45.007 28.043 45.007C27.625 45.007 27.2703 44.912 26.979 44.722C26.675 44.532 26.447 44.304 26.295 44.038C26.1303 43.772 26.048 43.5313 26.048 43.316C26.048 43.0753 26.1556 42.8727 26.371 42.708C26.5863 42.5307 26.96 42.442 27.492 42.442C27.834 42.442 28.2013 42.48 28.594 42.556C28.9993 42.632 29.4173 42.727 29.848 42.841C30.152 42.309 30.4306 41.6947 30.684 40.998C30.9373 40.3013 31.1906 39.5603 31.444 38.775C31.6973 37.9897 31.9443 37.2107 32.185 36.438C31.5896 36.2353 31.121 35.9503 30.779 35.583C30.4496 35.203 30.285 34.804 30.285 34.386C30.285 34.158 30.3356 33.93 30.437 33.702C30.5383 33.4613 30.6903 33.2587 30.893 33.094C31.0956 32.9293 31.33 32.847 31.596 32.847C31.482 32.999 31.406 33.2017 31.368 33.455C31.33 33.6957 31.311 33.8983 31.311 34.063C31.311 34.519 31.406 34.9053 31.596 35.222C31.7986 35.5387 32.052 35.7793 32.356 35.944C32.6093 35.1967 32.869 34.4873 33.135 33.816C33.4136 33.1447 33.7176 32.5493 34.047 32.03C34.3763 31.498 34.7373 31.08 35.13 30.776C35.5353 30.472 35.985 30.32 36.479 30.32C36.745 30.32 37.0236 30.377 37.315 30.491C37.619 30.605 37.8786 30.8077 38.094 31.099C38.3093 31.3777 38.417 31.7767 38.417 32.296C38.417 32.7267 38.322 33.1953 38.132 33.702C37.9546 34.196 37.676 34.671 37.296 35.127C36.9286 35.5703 36.4536 35.9377 35.871 36.229C35.2883 36.5077 34.5916 36.6597 33.781 36.685C33.7683 36.685 33.7366 36.685 33.686 36.685C33.648 36.685 33.5783 36.685 33.477 36.685C33.2363 37.445 32.9766 38.2177 32.698 39.003C32.4193 39.7757 32.1216 40.5167 31.805 41.226C31.4883 41.9227 31.1526 42.5497 30.798 43.107C31.3426 43.2717 31.9126 43.4427 32.508 43.62C33.116 43.7973 33.705 43.943 34.275 44.057C34.845 44.1837 35.3643 44.247 35.833 44.247C36.1116 44.247 36.365 44.2153 36.593 44.152C36.821 44.1013 37.049 44.019 37.277 43.905C37.0616 44.5383 36.7766 44.988 36.422 45.254C36.08 45.52 35.6683 45.653 35.187 45.653ZM27.929 44.399C28.2203 44.399 28.48 44.323 28.708 44.171C28.9486 44.0317 29.1703 43.829 29.373 43.563C28.9803 43.411 28.6003 43.2843 28.233 43.183C27.8656 43.0817 27.5426 43.031 27.264 43.031C27.0233 43.031 26.8586 43.069 26.77 43.145C26.6686 43.2083 26.618 43.297 26.618 43.411C26.618 43.6263 26.7446 43.8417 26.998 44.057C27.2386 44.285 27.549 44.399 27.929 44.399ZM33.629 36.229C34.199 36.2163 34.7056 36.0517 35.149 35.735C35.605 35.4057 35.9913 35.0067 36.308 34.538C36.6246 34.0693 36.8653 33.588 37.03 33.094C37.1946 32.6 37.277 32.1693 37.277 31.802C37.277 31.4473 37.2073 31.2067 37.068 31.08C36.9413 30.9533 36.7893 30.89 36.612 30.89C36.232 30.89 35.871 31.137 35.529 31.631C35.1996 32.125 34.8766 32.7773 34.56 33.588C34.256 34.386 33.9456 35.2663 33.629 36.229ZM39.5837 44.513C39.0644 44.513 38.678 44.3547 38.4247 44.038C38.1714 43.7213 38.0447 43.3413 38.0447 42.898C38.0447 42.6067 38.0954 42.2393 38.1967 41.796C38.3107 41.3527 38.4564 40.8903 38.6337 40.409C38.811 39.915 39.0137 39.4527 39.2417 39.022C39.4824 38.5913 39.7357 38.243 40.0017 37.977C40.2804 37.6983 40.5527 37.559 40.8187 37.559C40.9454 37.559 41.053 37.597 41.1417 37.673C41.2304 37.749 41.2747 37.863 41.2747 38.015C41.2747 38.167 41.1734 38.414 40.9707 38.756C40.7807 39.098 40.5527 39.4907 40.2867 39.934C40.0334 40.3647 39.8054 40.8207 39.6027 41.302C39.4127 41.7833 39.3177 42.2393 39.3177 42.67C39.3177 43.1133 39.3874 43.411 39.5267 43.563C39.6787 43.7023 39.9067 43.772 40.2107 43.772C40.6414 43.772 41.1037 43.5567 41.5977 43.126C42.0917 42.6953 42.611 41.9417 43.1557 40.865L43.3647 41.093C42.972 42.1823 42.4337 43.0247 41.7497 43.62C41.0657 44.2153 40.3437 44.513 39.5837 44.513ZM41.8447 35.868C41.6294 35.868 41.433 35.8173 41.2557 35.716C41.091 35.602 41.0087 35.431 41.0087 35.203C41.0087 34.9243 41.167 34.6837 41.4837 34.481C41.8004 34.2783 42.117 34.177 42.4337 34.177C42.6364 34.177 42.801 34.2213 42.9277 34.31C43.067 34.3987 43.1367 34.5633 43.1367 34.804C43.1367 35.0447 42.9974 35.2853 42.7187 35.526C42.4527 35.754 42.1614 35.868 41.8447 35.868ZM42.5893 49.32C42.4626 49.32 42.3106 49.2757 42.1333 49.187C41.9559 49.111 41.8039 48.9463 41.6773 48.693C41.5506 48.4523 41.4873 48.085 41.4873 47.591C41.4873 47.0463 41.5823 46.3243 41.7723 45.425C41.9496 44.5383 42.2029 43.563 42.5323 42.499C42.8616 41.4223 43.2416 40.3203 43.6723 39.193C44.1029 38.053 44.5653 36.9573 45.0593 35.906C45.5659 34.8547 46.0853 33.911 46.6173 33.075C47.1493 32.2263 47.6686 31.555 48.1753 31.061C48.6946 30.567 49.1886 30.32 49.6573 30.32C49.9486 30.32 50.1386 30.4087 50.2273 30.586C50.3159 30.7633 50.3603 30.966 50.3603 31.194C50.3603 31.7387 50.2083 32.334 49.9043 32.98C49.6129 33.626 49.2203 34.2783 48.7263 34.937C48.2323 35.583 47.6813 36.2037 47.0733 36.799C46.4779 37.3817 45.8699 37.882 45.2493 38.3C45.1859 38.4393 45.1289 38.585 45.0783 38.737C45.0276 38.889 44.9706 39.041 44.9073 39.193C45.0466 39.2183 45.1543 39.2943 45.2303 39.421C45.3189 39.5477 45.3696 39.6807 45.3823 39.82C45.4709 40.3773 45.5659 40.8777 45.6673 41.321C45.7686 41.7643 45.9206 42.1127 46.1233 42.366C46.3386 42.6067 46.6426 42.727 47.0353 42.727C47.4786 42.727 47.8586 42.5687 48.1753 42.252C48.4919 41.9227 48.8276 41.4603 49.1823 40.865L49.5243 41.093C49.1696 41.8657 48.7453 42.4293 48.2513 42.784C47.7573 43.1387 47.3203 43.316 46.9403 43.316C46.7249 43.316 46.4906 43.2653 46.2373 43.164C45.9966 43.05 45.7686 42.9043 45.5533 42.727C45.5533 43.5123 45.4646 44.2913 45.2873 45.064C45.1226 45.8493 44.8946 46.5587 44.6033 47.192C44.3246 47.838 44.0079 48.351 43.6533 48.731C43.3113 49.1237 42.9566 49.32 42.5893 49.32ZM43.1023 48.313C43.2416 48.313 43.3936 48.1863 43.5583 47.933C43.7356 47.6923 43.9066 47.3693 44.0713 46.964C44.2359 46.5587 44.3816 46.109 44.5083 45.615C44.6476 45.1337 44.7553 44.6523 44.8313 44.171C44.9199 43.6897 44.9643 43.2527 44.9643 42.86C44.9643 42.48 44.9136 42.138 44.8123 41.834C44.7236 41.5173 44.5716 41.15 44.3563 40.732C44.0523 41.6567 43.7736 42.5497 43.5203 43.411C43.2796 44.2723 43.0896 45.0513 42.9503 45.748C42.8236 46.4447 42.7603 47.0083 42.7603 47.439C42.7603 48.0217 42.8743 48.313 43.1023 48.313ZM45.6293 37.331C46.4399 36.5837 47.1366 35.8427 47.7193 35.108C48.3019 34.3733 48.7516 33.721 49.0683 33.151C49.3849 32.5683 49.5433 32.1567 49.5433 31.916C49.5433 31.764 49.4673 31.688 49.3153 31.688C48.9859 31.688 48.6186 31.9477 48.2133 32.467C47.8079 32.9737 47.3836 33.6513 46.9403 34.5C46.4969 35.3487 46.0599 36.2923 45.6293 37.331ZM50.9181 44.836C50.1327 44.836 49.5374 44.6207 49.1321 44.19C48.7267 43.7593 48.5241 43.2273 48.5241 42.594C48.5241 42.0367 48.6634 41.4413 48.9421 40.808C49.2334 40.1747 49.6134 39.5793 50.0821 39.022C50.5634 38.4647 51.0891 38.015 51.6591 37.673C52.2417 37.331 52.8181 37.16 53.3881 37.16C53.6921 37.16 53.9707 37.2423 54.2241 37.407C54.4901 37.559 54.6231 37.8757 54.6231 38.357C54.6231 38.8383 54.4837 39.288 54.2051 39.706C53.9264 40.124 53.5527 40.4977 53.0841 40.827C52.6154 41.1563 52.1024 41.4287 51.5451 41.644C51.0004 41.8467 50.4494 41.9797 49.8921 42.043C49.8667 42.1443 49.8477 42.2457 49.8351 42.347C49.8351 42.4357 49.8351 42.5307 49.8351 42.632C49.8351 42.784 49.8477 42.9487 49.8731 43.126C49.9111 43.3033 49.9807 43.4743 50.0821 43.639C50.1961 43.8037 50.3481 43.9367 50.5381 44.038C50.7407 44.1393 51.0004 44.19 51.3171 44.19C51.8617 44.19 52.4001 44.038 52.9321 43.734C53.4641 43.43 53.9581 43.031 54.4141 42.537C54.8827 42.0303 55.2754 41.473 55.5921 40.865L55.8771 41.074C55.5351 41.834 55.0981 42.499 54.5661 43.069C54.0341 43.6263 53.4514 44.057 52.8181 44.361C52.1974 44.6777 51.5641 44.836 50.9181 44.836ZM50.0251 41.568C50.3671 41.4793 50.7471 41.3273 51.1651 41.112C51.5831 40.8967 51.9884 40.6433 52.3811 40.352C52.7737 40.048 53.0967 39.7187 53.3501 39.364C53.6034 38.9967 53.7301 38.6167 53.7301 38.224C53.7301 38.0847 53.7047 37.9833 53.6541 37.92C53.6034 37.8567 53.5021 37.825 53.3501 37.825C53.0587 37.825 52.7421 37.939 52.4001 38.167C52.0707 38.3823 51.7477 38.6737 51.4311 39.041C51.1271 39.4083 50.8484 39.8137 50.5951 40.257C50.3417 40.6877 50.1517 41.1247 50.0251 41.568ZM57.2629 44.969C56.6549 44.969 56.1672 44.836 55.7999 44.57C55.4452 44.3167 55.1919 44 55.0399 43.62C54.8879 43.2273 54.8119 42.8347 54.8119 42.442C54.8119 42.062 54.8626 41.7707 54.9639 41.568C55.0652 41.3653 55.1856 41.2197 55.3249 41.131C55.4769 41.0297 55.6162 40.9537 55.7429 40.903C55.8822 40.8523 55.9836 40.7953 56.0469 40.732C56.4016 40.352 56.7372 39.9403 57.0539 39.497C57.3832 39.041 57.6682 38.5533 57.9089 38.034V37.825C57.9089 37.3437 57.9912 37.0017 58.1559 36.799C58.3206 36.5963 58.4979 36.495 58.6879 36.495C58.8019 36.495 58.8842 36.5267 58.9349 36.59C58.9982 36.6407 59.0362 36.704 59.0489 36.78C59.0489 36.856 59.0299 36.9573 58.9919 37.084C58.9539 37.2107 58.9349 37.3753 58.9349 37.578C58.9349 37.9833 59.0172 38.433 59.1819 38.927C59.3592 39.4083 59.5302 39.9213 59.6949 40.466C59.8722 40.998 59.9609 41.5553 59.9609 42.138C59.9609 42.29 59.9482 42.442 59.9229 42.594C59.9102 42.746 59.8912 42.8853 59.8659 43.012C60.2839 42.9233 60.6892 42.7207 61.0819 42.404C61.4746 42.0747 61.8482 41.5617 62.2029 40.865L62.3929 41.055C62.1522 41.7517 61.7912 42.2963 61.3099 42.689C60.8412 43.069 60.3156 43.3097 59.7329 43.411C59.5302 43.943 59.2072 44.3357 58.7639 44.589C58.3206 44.8423 57.8202 44.969 57.2629 44.969ZM57.2439 44.247C57.4339 44.247 57.6492 44.19 57.8899 44.076C58.1306 43.9747 58.3142 43.7403 58.4409 43.373C57.9216 43.2717 57.4529 43.069 57.0349 42.765C56.6169 42.4483 56.3066 42.138 56.1039 41.834C55.8506 41.8467 55.7239 42.0493 55.7239 42.442C55.7239 42.8853 55.8569 43.297 56.1229 43.677C56.3889 44.057 56.7626 44.247 57.2439 44.247ZM58.5549 42.993C58.5802 42.879 58.5992 42.7587 58.6119 42.632C58.6246 42.4927 58.6309 42.347 58.6309 42.195C58.6309 41.6123 58.5549 41.0297 58.4029 40.447C58.2636 39.8643 58.1369 39.307 58.0229 38.775C57.7569 39.2183 57.4656 39.6617 57.1489 40.105C56.8322 40.5483 56.5282 40.9157 56.2369 41.207C56.4396 41.587 56.7372 41.948 57.1299 42.29C57.5226 42.632 57.9976 42.8663 58.5549 42.993ZM63.4318 44.874C62.8871 44.874 62.4565 44.7093 62.1398 44.38C61.8358 44.0633 61.6838 43.5883 61.6838 42.955C61.6838 42.4103 61.7851 41.739 61.9878 40.941C62.1905 40.1303 62.4501 39.3007 62.7668 38.452C62.6528 38.4267 62.5388 38.4077 62.4248 38.395C62.3108 38.3697 62.1968 38.338 62.0828 38.3V37.882C62.2221 37.8947 62.3615 37.9073 62.5008 37.92C62.6401 37.9327 62.7921 37.9453 62.9568 37.958C63.2228 37.274 63.5078 36.6153 63.8118 35.982C64.1158 35.3487 64.4198 34.785 64.7238 34.291C65.0278 33.7843 65.3128 33.3853 65.5788 33.094C65.8575 32.8027 66.0981 32.657 66.3008 32.657C66.4021 32.657 66.4971 32.695 66.5858 32.771C66.6871 32.847 66.7378 32.961 66.7378 33.113C66.7378 33.341 66.6048 33.6957 66.3388 34.177C66.0728 34.6583 65.7435 35.2283 65.3508 35.887C64.9708 36.5457 64.5971 37.255 64.2298 38.015C64.3438 38.015 64.4578 38.015 64.5718 38.015C64.6858 38.015 64.7935 38.015 64.8948 38.015C65.3635 38.015 65.8258 38.0087 66.2818 37.996C66.7378 37.9833 67.2001 37.9517 67.6688 37.901V38.338C66.9721 38.4013 66.3451 38.452 65.7878 38.49C65.2305 38.528 64.7175 38.5533 64.2488 38.566C64.1981 38.566 64.1538 38.566 64.1158 38.566C64.0778 38.566 64.0335 38.566 63.9828 38.566C63.7041 39.212 63.4635 39.8833 63.2608 40.58C63.0581 41.264 62.9568 41.9353 62.9568 42.594C62.9568 43.126 63.0391 43.506 63.2038 43.734C63.3685 43.962 63.6345 44.076 64.0018 44.076C64.6605 44.076 65.3065 43.791 65.9398 43.221C66.5858 42.6383 67.1558 41.8467 67.6498 40.846L67.8968 41.036C67.5801 41.758 67.1875 42.4103 66.7188 42.993C66.2501 43.5757 65.7308 44.0317 65.1608 44.361C64.6035 44.703 64.0271 44.874 63.4318 44.874ZM68.0703 49.32C67.7537 49.32 67.4687 49.2313 67.2153 49.054C66.962 48.8767 66.8353 48.6043 66.8353 48.237C66.8353 47.8317 66.943 47.4707 67.1583 47.154C67.3737 46.8373 67.6587 46.5397 68.0133 46.261C68.368 45.995 68.767 45.7417 69.2103 45.501C69.6537 45.273 70.1033 45.0513 70.5593 44.836C70.724 44.3927 70.895 43.886 71.0723 43.316C71.2497 42.746 71.4143 42.1507 71.5663 41.53C71.161 42.1507 70.7303 42.689 70.2743 43.145C69.8183 43.601 69.3307 43.829 68.8113 43.829C68.5707 43.829 68.33 43.7783 68.0893 43.677C67.8487 43.563 67.646 43.392 67.4813 43.164C67.3293 42.936 67.2533 42.6383 67.2533 42.271C67.2533 41.929 67.3103 41.5237 67.4243 41.055C67.551 40.5863 67.703 40.1303 67.8803 39.687C68.0577 39.231 68.2413 38.8573 68.4313 38.566C68.634 38.2747 68.805 38.129 68.9443 38.129C69.0077 38.129 69.109 38.1543 69.2483 38.205C69.3877 38.243 69.5207 38.3 69.6473 38.376C69.774 38.452 69.8437 38.5343 69.8563 38.623C69.7423 38.7877 69.6157 39.022 69.4763 39.326C69.337 39.6173 69.1977 39.9467 69.0583 40.314C68.9317 40.6813 68.824 41.036 68.7353 41.378C68.6467 41.72 68.6023 42.0177 68.6023 42.271C68.6023 42.4863 68.6467 42.6637 68.7353 42.803C68.8367 42.9423 69.0077 43.012 69.2483 43.012C69.5017 43.012 69.774 42.898 70.0653 42.67C70.3693 42.4293 70.667 42.1317 70.9583 41.777C71.2497 41.4097 71.522 41.0233 71.7753 40.618C71.8007 40.504 71.826 40.3647 71.8513 40.2C71.8893 40.0353 71.9273 39.8707 71.9653 39.706C72.016 39.516 72.111 39.3133 72.2503 39.098C72.4023 38.8827 72.6367 38.775 72.9533 38.775C73.0293 38.775 73.099 38.7813 73.1623 38.794C73.2383 38.794 73.3207 38.8067 73.4093 38.832C73.4093 39.0347 73.346 39.4147 73.2193 39.972C73.1053 40.5167 72.9343 41.1563 72.7063 41.891C72.491 42.613 72.2377 43.354 71.9463 44.114C72.5163 43.886 73.0863 43.5187 73.6563 43.012C74.239 42.4927 74.7077 41.7833 75.0623 40.884L75.3283 41.112C75.1383 41.72 74.847 42.252 74.4543 42.708C74.0743 43.164 73.6437 43.5567 73.1623 43.886C72.681 44.2153 72.1997 44.4877 71.7183 44.703C71.389 45.5137 71.028 46.2673 70.6353 46.964C70.2427 47.6733 69.831 48.2433 69.4003 48.674C68.9697 49.1047 68.5263 49.32 68.0703 49.32ZM67.9373 48.674C68.14 48.674 68.463 48.4207 68.9063 47.914C69.3497 47.42 69.8183 46.584 70.3123 45.406C69.831 45.6593 69.3687 45.919 68.9253 46.185C68.4947 46.4637 68.1463 46.7613 67.8803 47.078C67.6143 47.3947 67.4813 47.743 67.4813 48.123C67.4813 48.237 67.513 48.3573 67.5763 48.484C67.6523 48.6107 67.7727 48.674 67.9373 48.674ZM76.2703 44.57C75.713 44.57 75.314 44.38 75.0733 44C74.8453 43.62 74.7313 43.1513 74.7313 42.594C74.7313 41.986 74.8453 41.264 75.0733 40.428C75.3013 39.592 75.599 38.7117 75.9663 37.787C76.3463 36.8623 76.758 35.963 77.2013 35.089C77.6446 34.2023 78.088 33.4043 78.5313 32.695C78.9873 31.973 79.399 31.3967 79.7663 30.966C80.1463 30.5353 80.4503 30.32 80.6783 30.32C80.8303 30.32 80.9506 30.4023 81.0393 30.567C81.1407 30.7317 81.2167 30.928 81.2673 31.156C81.3307 31.3713 81.3623 31.574 81.3623 31.764C81.3623 32.106 81.2737 32.5557 81.0963 33.113C80.9317 33.6577 80.691 34.2657 80.3743 34.937C80.0703 35.6083 79.703 36.2923 79.2723 36.989C78.8543 37.673 78.392 38.3317 77.8853 38.965C77.3786 39.5857 76.8466 40.124 76.2893 40.58C76.2133 40.922 76.15 41.2513 76.0993 41.568C76.0613 41.8847 76.0423 42.1823 76.0423 42.461C76.0423 42.9423 76.112 43.297 76.2513 43.525C76.4033 43.753 76.6123 43.867 76.8783 43.867C77.2076 43.867 77.537 43.7213 77.8663 43.43C78.2083 43.126 78.5313 42.746 78.8353 42.29C79.1393 41.8213 79.399 41.34 79.6143 40.846L79.9563 41.017C79.437 42.119 78.867 42.9867 78.2463 43.62C77.6256 44.2533 76.967 44.57 76.2703 44.57ZM76.5173 39.763C76.948 39.307 77.366 38.8003 77.7713 38.243C78.1893 37.673 78.5693 37.084 78.9113 36.476C79.266 35.868 79.5763 35.2853 79.8423 34.728C80.1083 34.158 80.311 33.6513 80.4503 33.208C80.6023 32.752 80.6783 32.3973 80.6783 32.144C80.6783 32.0553 80.6656 31.9983 80.6403 31.973C80.6277 31.9477 80.6087 31.9287 80.5833 31.916C80.482 31.916 80.311 32.0743 80.0703 32.391C79.8423 32.695 79.5636 33.113 79.2343 33.645C78.9176 34.177 78.5883 34.7787 78.2463 35.45C77.917 36.1213 77.6003 36.8307 77.2963 37.578C76.9923 38.3127 76.7326 39.041 76.5173 39.763ZM81.3292 44.836C80.5439 44.836 79.9485 44.6207 79.5432 44.19C79.1379 43.7593 78.9352 43.2273 78.9352 42.594C78.9352 42.0367 79.0745 41.4413 79.3532 40.808C79.6445 40.1747 80.0245 39.5793 80.4932 39.022C80.9745 38.4647 81.5002 38.015 82.0702 37.673C82.6529 37.331 83.2292 37.16 83.7992 37.16C84.1032 37.16 84.3819 37.2423 84.6352 37.407C84.9012 37.559 85.0342 37.8757 85.0342 38.357C85.0342 38.8383 84.8949 39.288 84.6162 39.706C84.3375 40.124 83.9639 40.4977 83.4952 40.827C83.0265 41.1563 82.5135 41.4287 81.9562 41.644C81.4115 41.8467 80.8605 41.9797 80.3032 42.043C80.2779 42.1443 80.2589 42.2457 80.2462 42.347C80.2462 42.4357 80.2462 42.5307 80.2462 42.632C80.2462 42.784 80.2589 42.9487 80.2842 43.126C80.3222 43.3033 80.3919 43.4743 80.4932 43.639C80.6072 43.8037 80.7592 43.9367 80.9492 44.038C81.1519 44.1393 81.4115 44.19 81.7282 44.19C82.2729 44.19 82.8112 44.038 83.3432 43.734C83.8752 43.43 84.3692 43.031 84.8252 42.537C85.2939 42.0303 85.6865 41.473 86.0032 40.865L86.2882 41.074C85.9462 41.834 85.5092 42.499 84.9772 43.069C84.4452 43.6263 83.8625 44.057 83.2292 44.361C82.6085 44.6777 81.9752 44.836 81.3292 44.836ZM80.4362 41.568C80.7782 41.4793 81.1582 41.3273 81.5762 41.112C81.9942 40.8967 82.3995 40.6433 82.7922 40.352C83.1849 40.048 83.5079 39.7187 83.7612 39.364C84.0145 38.9967 84.1412 38.6167 84.1412 38.224C84.1412 38.0847 84.1159 37.9833 84.0652 37.92C84.0145 37.8567 83.9132 37.825 83.7612 37.825C83.4699 37.825 83.1532 37.939 82.8112 38.167C82.4819 38.3823 82.1589 38.6737 81.8422 39.041C81.5382 39.4083 81.2595 39.8137 81.0062 40.257C80.7529 40.6877 80.5629 41.1247 80.4362 41.568Z" fill="#111111"></path><path d="M13.1451 5L8.67512 12.77L4.29512 5H1.29512L7.38512 14.99L0.545117 26H3.54512L8.64512 17.21L13.5951 26H16.5951L9.93512 14.99L16.1451 5H13.1451ZM21.8657 19.64L19.8257 21.02C20.2857 21.94 20.8757 22.81 21.5957 23.63C22.3357 24.43 23.1857 25.08 24.1457 25.58C25.1257 26.06 26.1857 26.3 27.3257 26.3C28.1657 26.3 28.9657 26.16 29.7257 25.88C30.5057 25.6 31.1957 25.2 31.7957 24.68C32.4157 24.16 32.8957 23.53 33.2357 22.79C33.5957 22.05 33.7757 21.22 33.7757 20.3C33.7757 19.34 33.6057 18.52 33.2657 17.84C32.9257 17.14 32.4857 16.55 31.9457 16.07C31.4257 15.57 30.8557 15.16 30.2357 14.84C29.6157 14.52 29.0257 14.26 28.4657 14.06C27.5457 13.74 26.7657 13.42 26.1257 13.1C25.5057 12.78 25.0057 12.45 24.6257 12.11C24.2657 11.77 24.0057 11.41 23.8457 11.03C23.6857 10.65 23.6057 10.24 23.6057 9.8C23.6057 9.34 23.7157 8.91 23.9357 8.51C24.1757 8.11 24.5357 7.78 25.0157 7.52C25.4957 7.26 26.1157 7.13 26.8757 7.13C27.6957 7.13 28.3857 7.29 28.9457 7.61C29.5257 7.93 30.0157 8.34 30.4157 8.84C30.8157 9.34 31.1457 9.85 31.4057 10.37L33.5957 9.11C33.2557 8.37 32.7857 7.67 32.1857 7.01C31.5857 6.33 30.8557 5.78 29.9957 5.36C29.1557 4.92 28.1657 4.7 27.0257 4.7C25.8457 4.7 24.7957 4.94 23.8757 5.42C22.9557 5.88 22.2357 6.52 21.7157 7.34C21.1957 8.16 20.9357 9.09 20.9357 10.13C20.9357 11.09 21.1157 11.9 21.4757 12.56C21.8557 13.22 22.3357 13.78 22.9157 14.24C23.4957 14.68 24.1057 15.05 24.7457 15.35C25.3857 15.63 25.9657 15.86 26.4857 16.04C27.2857 16.32 28.0357 16.64 28.7357 17C29.4557 17.34 30.0357 17.79 30.4757 18.35C30.9157 18.91 31.1357 19.66 31.1357 20.6C31.1357 21.24 30.9757 21.81 30.6557 22.31C30.3557 22.81 29.9257 23.2 29.3657 23.48C28.8257 23.76 28.1757 23.9 27.4157 23.9C26.5757 23.9 25.8257 23.72 25.1657 23.36C24.5057 23 23.9057 22.5 23.3657 21.86C22.8457 21.22 22.3457 20.48 21.8657 19.64ZM37.2213 7.4H42.6213V26H45.1713V7.4H50.5713V5H37.2213V7.4ZM55.0725 15.5C55.0725 14.32 55.2625 13.23 55.6425 12.23C56.0425 11.21 56.6025 10.33 57.3225 9.59C58.0425 8.85 58.8825 8.28 59.8425 7.88C60.8225 7.46 61.8825 7.25 63.0225 7.25C64.1625 7.25 65.2125 7.46 66.1725 7.88C67.1525 8.28 68.0025 8.85 68.7225 9.59C69.4425 10.33 69.9925 11.21 70.3725 12.23C70.7725 13.23 70.9725 14.32 70.9725 15.5C70.9725 16.68 70.7725 17.78 70.3725 18.8C69.9925 19.8 69.4425 20.67 68.7225 21.41C68.0025 22.15 67.1525 22.73 66.1725 23.15C65.2125 23.55 64.1625 23.75 63.0225 23.75C61.8825 23.75 60.8225 23.55 59.8425 23.15C58.8825 22.73 58.0425 22.15 57.3225 21.41C56.6025 20.67 56.0425 19.8 55.6425 18.8C55.2625 17.78 55.0725 16.68 55.0725 15.5ZM52.3725 15.5C52.3725 17.02 52.6325 18.44 53.1525 19.76C53.6925 21.08 54.4425 22.23 55.4025 23.21C56.3625 24.17 57.4925 24.93 58.7925 25.49C60.0925 26.03 61.5025 26.3 63.0225 26.3C64.5625 26.3 65.9725 26.03 67.2525 25.49C68.5525 24.93 69.6825 24.17 70.6425 23.21C71.6025 22.23 72.3425 21.08 72.8625 19.76C73.4025 18.44 73.6725 17.02 73.6725 15.5C73.6725 13.96 73.4025 12.54 72.8625 11.24C72.3425 9.92 71.6025 8.78 70.6425 7.82C69.6825 6.84 68.5525 6.08 67.2525 5.54C65.9725 4.98 64.5625 4.7 63.0225 4.7C61.5025 4.7 60.0925 4.98 58.7925 5.54C57.4925 6.08 56.3625 6.84 55.4025 7.82C54.4425 8.78 53.6925 9.92 53.1525 11.24C52.6325 12.54 52.3725 13.96 52.3725 15.5ZM82.8236 15.65L90.0236 26H93.1736L85.6736 15.65H82.8236ZM79.0736 5V26H81.6236V5H79.0736ZM80.4836 7.25H84.7736C85.6736 7.25 86.4636 7.41 87.1436 7.73C87.8436 8.05 88.3836 8.51 88.7636 9.11C89.1636 9.71 89.3636 10.44 89.3636 11.3C89.3636 12.16 89.1636 12.89 88.7636 13.49C88.3836 14.09 87.8436 14.55 87.1436 14.87C86.4636 15.19 85.6736 15.35 84.7736 15.35H80.4836V17.6H84.7736C86.1336 17.6 87.3436 17.35 88.4036 16.85C89.4836 16.33 90.3336 15.6 90.9536 14.66C91.5936 13.7 91.9136 12.58 91.9136 11.3C91.9136 10 91.5936 8.88 90.9536 7.94C90.3336 7 89.4836 6.28 88.4036 5.78C87.3436 5.26 86.1336 5 84.7736 5H80.4836V7.25ZM99.0707 26H109.661V23.6H99.0707V26ZM99.0707 7.4H109.661V5H99.0707V7.4ZM99.0707 15.8H109.061V13.4H99.0707V15.8ZM97.6607 5V26H100.211V5H97.6607Z" fill="#111111"></path></svg>