<svg xmlns="http://www.w3.org/2000/svg" width="25" height="23" viewBox="0 0 25 23" fill="none"><path d="M22.3637 0H6.19781C4.79484 0 3.65341 1.13076 3.65341 2.51613L3.54923 16.751H0.394381C0.1708 16.751 0 16.9487 0 17.1723V19.1313C0 20.9653 1.46761 22.4651 3.23887 22.5473V22.5709H16.8522V22.5444C16.9534 22.5485 17.0147 22.5709 17.0843 22.5709H17.094C18.9831 22.5598 20.5058 21.02 20.4959 19.1309V6.68016H24.6056C24.8292 6.68016 25 6.47774 25 6.25435V2.65985C25.0026 1.19896 23.8246 0.0104773 22.3637 0V0ZM3.41599 21.7611H3.41322C1.97309 21.7611 0.809716 20.5709 0.809716 19.1309V17.5607H13.664V19.1242C13.6608 20.0356 14.0208 20.9105 14.6642 21.5557C14.7326 21.6245 14.8042 21.6599 14.8774 21.7611H3.41599ZM19.6862 19.1306C19.6862 20.5709 18.5341 21.7611 17.0934 21.7611H17.0851C15.6373 21.7507 14.4703 20.5723 14.4737 19.1244V17.1723C14.4749 16.9455 14.2956 16.7589 14.0688 16.751H4.35895L4.46313 2.5189C4.46313 1.57733 5.24121 0.809717 6.19781 0.809717H20.4523C19.9909 1.31579 19.6862 1.95609 19.6862 2.67072V19.1306ZM24.1903 2.66697V5.87045H20.4959V2.66993C20.4959 1.6566 21.3389 0.809717 22.3518 0.809717H22.3631C23.3786 0.819799 24.195 1.6483 24.1903 2.664V2.66697Z" fill="white"></path><path d="M9.50707 9.96547L11.5944 11.3926C11.7306 11.4865 11.9107 11.4865 12.0469 11.3926L14.128 9.96587C14.8509 9.47264 15.3848 8.44152 15.3848 7.56716V4.67977C15.3892 4.52716 15.305 4.38562 15.169 4.31623L11.9908 2.75294C11.8793 2.69759 11.7484 2.69759 11.6369 2.75294L8.46468 4.31188C8.32867 4.38127 8.24465 4.52281 8.2492 4.67542V7.56716C8.2492 8.44152 8.78433 9.47264 9.50707 9.96547ZM9.05892 4.92807L11.817 3.5672L14.5751 4.93182V7.56716C14.5751 8.17702 14.1754 8.95273 13.6711 9.2965L11.8123 10.5678L9.96075 9.2967C9.45646 8.95253 9.05892 8.17702 9.05892 7.56716V4.92807Z" fill="white"></path><path d="M11.1318 8.17867C11.2073 8.25576 11.3105 8.29945 11.4184 8.30004H11.4194C11.527 8.29965 11.63 8.25655 11.7057 8.18025L13.3162 6.56912C13.4746 6.41097 13.4746 6.15437 13.3164 5.99623C13.1585 5.83788 12.9019 5.83788 12.7437 5.99603L11.4208 7.31874L10.892 6.78479C10.7345 6.62585 10.4781 6.62467 10.3191 6.78222C10.1602 6.93977 10.1592 7.19617 10.3165 7.35511L11.1318 8.17867Z" fill="white"></path><path d="M16.8519 12.551H7.13533C6.91175 12.551 6.73047 12.7323 6.73047 12.9559C6.73047 13.1795 6.91175 13.3607 7.13533 13.3607H16.8519C17.0755 13.3607 17.2568 13.1795 17.2568 12.9559C17.2568 12.7323 17.0755 12.551 16.8519 12.551Z" fill="white"></path><path d="M16.8519 14.4233H7.13533C6.91175 14.4233 6.73047 14.6046 6.73047 14.8282C6.73047 15.0518 6.91175 15.2331 7.13533 15.2331H16.8519C17.0755 15.2331 17.2568 15.0518 17.2568 14.8282C17.2568 14.6046 17.0755 14.4233 16.8519 14.4233Z" fill="white"></path></svg>