<svg xmlns="http://www.w3.org/2000/svg" width="25" height="25" viewBox="0 0 25 25" fill="none"><path d="M13.1179 11.8827C12.927 11.6918 12.6179 11.6918 12.427 11.8827C12.2366 12.0731 12.2366 12.3822 12.427 12.5731C12.6179 12.7636 12.927 12.7636 13.1179 12.5731C13.3083 12.3822 13.3083 12.0731 13.1179 11.8827Z" fill="white"></path><path d="M19.3325 5.66722C18.3784 4.71316 16.8339 4.71312 15.8797 5.66722C14.9281 6.61883 14.9281 8.16766 15.8799 9.12006C16.8318 10.0714 18.3807 10.0718 19.3325 9.11996C20.2865 8.16596 20.2867 6.62137 19.3325 5.66722ZM18.642 8.42938C18.071 9.00038 17.1416 9.00038 16.5704 8.42948C15.9994 7.85809 15.9993 6.9287 16.5703 6.35775C17.1427 5.78534 18.0695 5.78524 18.642 6.35775C19.2144 6.93011 19.2145 7.85692 18.642 8.42938Z" fill="white"></path><path d="M24.8571 0.143023C24.7612 0.0471729 24.6303 -0.00478038 24.4943 0.000346583C24.3839 0.00430167 21.7552 0.109966 18.6305 1.21441C16.1265 2.0985 14.0395 3.36427 12.4272 4.97658C12.0659 5.33786 11.7144 5.72096 11.378 6.11896C9.78385 5.18058 8.5064 5.47482 7.69883 5.907C5.83941 6.90212 4.68848 9.60408 4.68848 11.5367C4.68862 11.7342 4.80762 11.9122 4.99004 11.9878C5.05044 12.0128 5.11392 12.025 5.17681 12.025C5.30391 12.025 5.42876 11.9753 5.52217 11.882C6.50279 10.9013 7.71231 10.9627 8.10743 11.0146L8.27843 11.1856C7.9419 11.9864 7.67081 12.7827 7.47198 13.5572C7.4002 13.8374 7.42442 14.134 7.53111 14.4053C7.06099 14.622 6.60743 14.9401 6.2125 15.335C4.95562 16.5919 4.70039 19.6551 4.69014 19.7849C4.67891 19.9273 4.73057 20.0676 4.83159 20.1686C4.92354 20.2605 5.0479 20.3116 5.17681 20.3116C5.1896 20.3116 5.20244 20.3111 5.21528 20.3101C5.34507 20.2999 8.40836 20.0447 9.66525 18.7878C10.06 18.393 10.3781 17.9395 10.5947 17.4695C10.8819 17.5824 11.1776 17.5963 11.4434 17.5282C12.2175 17.3294 13.0137 17.0584 13.8146 16.7219L13.9856 16.8929C14.0375 17.288 14.0988 18.4976 13.1182 19.4781C12.9786 19.6177 12.9368 19.8277 13.0124 20.0102C13.088 20.1926 13.266 20.3116 13.4635 20.3116C15.3961 20.3116 18.098 19.1606 19.0931 17.3012C19.5253 16.4937 19.8196 15.2163 18.8812 13.6221C19.279 13.2859 19.6621 12.9343 20.0236 12.5729C21.6359 10.9606 22.9016 8.87351 23.7857 6.36979C24.8902 3.24488 24.9958 0.616168 24.9998 0.505816C25.0046 0.370318 24.9529 0.238921 24.8571 0.143023ZM5.78018 10.4865C6.0835 9.01853 6.96451 7.40774 8.15982 6.76799C8.9586 6.34055 9.8317 6.38244 10.76 6.8906C9.96915 7.93074 9.2816 9.05134 8.70851 10.2347C8.70123 10.2302 8.61334 10.1197 8.45006 10.0829C8.38292 10.0677 7.09097 9.78982 5.78018 10.4865ZM8.97472 18.0972C8.30333 18.7686 6.72837 19.1227 5.73291 19.2673C5.87754 18.2718 6.23169 16.6969 6.90303 16.0255C7.27901 15.6496 7.71495 15.3645 8.15313 15.2039L9.7963 16.8471C9.63575 17.2853 9.35074 17.7212 8.97472 18.0972ZM11.2008 16.5822C11.0595 16.6184 10.8958 16.5653 10.7741 16.4438C10.1424 15.8121 9.89532 15.565 9.81778 15.4875C9.6756 15.3453 9.32691 14.9966 8.55675 14.2264C8.43497 14.1044 8.38184 13.9408 8.41793 13.7997C8.57433 13.1906 8.77887 12.5657 9.0276 11.9348L13.0654 15.9726C12.4344 16.2214 11.8096 16.4259 11.2008 16.5822ZM18.2323 16.8404C17.5925 18.0357 15.9818 18.9167 14.5139 19.22C14.9819 18.3393 15.0851 17.2182 14.9141 16.5383C14.8744 16.3804 14.7714 16.301 14.7656 16.2917C15.9489 15.7186 17.0694 15.031 18.1096 14.2402C18.6178 15.1686 18.6597 16.0418 18.2323 16.8404ZM19.3331 11.8824C18.8931 12.3223 18.4194 12.7473 17.9249 13.1456C16.7364 14.1027 15.4281 14.9133 14.0324 15.5586L9.44161 10.9679C10.0869 9.5721 10.8976 8.26389 11.8545 7.07546C12.2531 6.58068 12.6781 6.10685 13.1179 5.66711C14.5645 4.22052 16.4314 3.06925 18.6683 2.24054L22.7597 6.33195C21.9311 8.56882 20.7798 10.4357 19.3331 11.8824ZM23.111 5.30212L19.6981 1.88922C21.5576 1.31168 23.1752 1.09542 23.9826 1.01768C23.9048 1.82525 23.6885 3.44288 23.111 5.30212Z" fill="white"></path><path d="M11.7368 20.1686C11.5461 19.9779 11.2369 19.978 11.0463 20.1687L9.6654 21.55C9.47477 21.7408 9.47482 22.0499 9.6655 22.2406C9.85627 22.4312 10.1654 22.4312 10.3561 22.2405L11.7369 20.8591C11.9276 20.6684 11.9275 20.3592 11.7368 20.1686Z" fill="white"></path><path d="M4.83117 13.2629C4.64055 13.0722 4.33141 13.0722 4.14064 13.2628L2.75929 14.6437C2.56857 14.8343 2.56852 15.1435 2.75914 15.3342C2.94972 15.5248 3.25885 15.525 3.44967 15.3343L4.83102 13.9535C5.02175 13.7628 5.0218 13.4537 4.83117 13.2629Z" fill="white"></path><path d="M8.28476 20.8593C8.09418 20.6686 7.78495 20.6686 7.59423 20.8593L4.2866 24.1664C4.09588 24.3571 4.09588 24.6663 4.28655 24.8569C4.47713 25.0476 4.78636 25.0477 4.97708 24.857L8.28471 21.5498C8.47543 21.3592 8.47543 21.05 8.28476 20.8593Z" fill="white"></path><path d="M4.37753 20.8593C4.1869 20.6686 3.87768 20.6686 3.687 20.8593L0.379377 24.1664C0.188653 24.3571 0.188653 24.6663 0.379328 24.8569C0.569904 25.0476 0.879133 25.0477 1.06986 24.857L4.37748 21.5498C4.5682 21.3592 4.5682 21.05 4.37753 20.8593Z" fill="white"></path><path d="M4.14067 16.7157C3.95004 16.5251 3.64081 16.5251 3.45014 16.7158L0.143 20.0234C-0.0476747 20.2141 -0.0476747 20.5232 0.143048 20.714C0.333723 20.9046 0.642903 20.9046 0.833577 20.7139L4.14071 17.4063C4.33139 17.2156 4.33139 16.9064 4.14067 16.7157Z" fill="white"></path><path d="M15.19 9.81073C14.9993 9.62006 14.6902 9.62006 14.4994 9.81073L13.809 10.5012C13.6183 10.6918 13.6183 11.001 13.809 11.1917C13.9997 11.3824 14.3089 11.3824 14.4996 11.1917L15.19 10.5013C15.3807 10.3106 15.3807 10.0015 15.19 9.81073Z" fill="white"></path></svg>